<?xml version="1.0" encoding="UTF-8" standalone="no"?>
<svg
   xmlns:dc="http://purl.org/dc/elements/1.1/"
   xmlns:cc="http://creativecommons.org/ns#"
   xmlns:rdf="http://www.w3.org/1999/02/22-rdf-syntax-ns#"
   xmlns:svg="http://www.w3.org/2000/svg"
   xmlns="http://www.w3.org/2000/svg"
   xmlns:sodipodi="http://sodipodi.sourceforge.net/DTD/sodipodi-0.dtd"
   xmlns:inkscape="http://www.inkscape.org/namespaces/inkscape"
   viewBox="0.0 0.0 348.0 348.0"
   fill="none"
   version="1.1"
   id="svg819"
   sodipodi:docname="LasersOriginal.svg"
   inkscape:version="0.92.2 (5c3e80d, 2017-08-06)">
  <metadata
     id="metadata825">
    <rdf:RDF>
      <cc:Work
         rdf:about="">
        <dc:format>image/svg+xml</dc:format>
        <dc:type
           rdf:resource="http://purl.org/dc/dcmitype/StillImage" />
        <dc:title></dc:title>
      </cc:Work>
    </rdf:RDF>
  </metadata>
  <defs
     id="defs823" />
  <sodipodi:namedview
     pagecolor="#ffffff"
     bordercolor="#666666"
     borderopacity="1"
     objecttolerance="10"
     gridtolerance="10"
     guidetolerance="10"
     inkscape:pageopacity="0"
     inkscape:pageshadow="2"
     inkscape:window-width="1366"
     inkscape:window-height="745"
     id="namedview821"
     showgrid="false"
     inkscape:zoom="1.6551724"
     inkscape:cx="174"
     inkscape:cy="174"
     inkscape:window-x="-8"
     inkscape:window-y="-8"
     inkscape:window-maximized="1"
     inkscape:current-layer="svg819" />
  <path
     d="M5.079 5.776h336.913v337.67H5.08z"
     stroke-width="2"
     stroke="#000"
     id="path815" />
  <path
     d="M282.734 40.554c0-8.376 6.966-15.165 15.56-15.165 4.126 0 8.084 1.597 11.001 4.441 2.918 2.844 4.558 6.702 4.558 10.724 0 8.376-6.966 15.165-15.56 15.165-8.593 0-15.559-6.79-15.559-15.165z"
     stroke-width="2"
     stroke="#000"
     id="path817" />
  <rect
     style="opacity:1;fill:none;fill-opacity:1;stroke:#000000;stroke-width:3.77952766;stroke-linecap:butt;stroke-miterlimit:4;stroke-dasharray:none;stroke-opacity:1"
     id="rect4528"
     width="269.45834"
     height="251.33333"
     x="38.527"
     y="74.909836" />
  <path
     style="opacity:1;fill:none;fill-opacity:1;stroke:#000000;stroke-width:1.50183976;stroke-linecap:butt;stroke-miterlimit:4;stroke-dasharray:none;stroke-opacity:1"
     id="path1405"
     sodipodi:type="arc"
     sodipodi:cx="172.79169"
     sodipodi:cy="120.83333"
     sodipodi:rx="19.565928"
     sodipodi:ry="18.245529"
     sodipodi:start="0"
     sodipodi:end="6.2767537"
     sodipodi:open="true"
     d="m 192.35761,120.83333 a 19.565928,18.245529 0 0 1 -19.53446,18.2455 19.565928,18.245529 0 0 1 -19.59729,-18.18683 19.565928,18.245529 0 0 1 19.47145,-18.30399 19.565928,18.245529 0 0 1 19.6599,18.12797" />
  <path
     style="opacity:1;fill:none;fill-opacity:1;stroke:#000000;stroke-width:1.50183976;stroke-linecap:butt;stroke-miterlimit:4;stroke-dasharray:none;stroke-opacity:1"
     id="path1405-1"
     sodipodi:type="arc"
     sodipodi:cx="257.97919"
     sodipodi:cy="120.83333"
     sodipodi:rx="19.565928"
     sodipodi:ry="18.245529"
     sodipodi:start="0"
     sodipodi:end="6.2767537"
     sodipodi:open="true"
     d="m 277.54511,120.83333 a 19.565928,18.245529 0 0 1 -19.53446,18.2455 19.565928,18.245529 0 0 1 -19.59729,-18.18683 19.565928,18.245529 0 0 1 19.47145,-18.30399 19.565928,18.245529 0 0 1 19.6599,18.12797" />
  <path
     style="opacity:1;fill:none;fill-opacity:1;stroke:#000000;stroke-width:1.50183976;stroke-linecap:butt;stroke-miterlimit:4;stroke-dasharray:none;stroke-opacity:1"
     id="path1405-9"
     sodipodi:type="arc"
     sodipodi:cx="88.208359"
     sodipodi:cy="120.83333"
     sodipodi:rx="19.565928"
     sodipodi:ry="18.245529"
     sodipodi:start="0"
     sodipodi:end="6.2767537"
     sodipodi:open="true"
     d="M 107.77429,120.83333 A 19.565928,18.245529 0 0 1 88.239819,139.07883 19.565928,18.245529 0 0 1 68.642532,120.892 19.565928,18.245529 0 0 1 88.113979,102.58801 19.565928,18.245529 0 0 1 107.77388,120.71598" />
  <path
     style="opacity:1;fill:none;fill-opacity:1;stroke:#000000;stroke-width:1.50183976;stroke-linecap:butt;stroke-miterlimit:4;stroke-dasharray:none;stroke-opacity:1"
     id="path1405-7"
     sodipodi:type="arc"
     sodipodi:cx="172.79169"
     sodipodi:cy="202.39583"
     sodipodi:rx="19.565928"
     sodipodi:ry="18.245529"
     sodipodi:start="0"
     sodipodi:end="6.2767537"
     sodipodi:open="true"
     d="m 192.35761,202.39583 a 19.565928,18.245529 0 0 1 -19.53446,18.2455 19.565928,18.245529 0 0 1 -19.59729,-18.18683 19.565928,18.245529 0 0 1 19.47145,-18.30399 19.565928,18.245529 0 0 1 19.6599,18.12797" />
  <path
     style="opacity:1;fill:none;fill-opacity:1;stroke:#000000;stroke-width:1.50183976;stroke-linecap:butt;stroke-miterlimit:4;stroke-dasharray:none;stroke-opacity:1"
     id="path1405-0"
     sodipodi:type="arc"
     sodipodi:cx="88.208359"
     sodipodi:cy="202.39583"
     sodipodi:rx="19.565928"
     sodipodi:ry="18.245529"
     sodipodi:start="0"
     sodipodi:end="6.2767537"
     sodipodi:open="true"
     d="M 107.77429,202.39583 A 19.565928,18.245529 0 0 1 88.239819,220.64133 19.565928,18.245529 0 0 1 68.642532,202.4545 19.565928,18.245529 0 0 1 88.113979,184.15051 19.565928,18.245529 0 0 1 107.77388,202.27848" />
  <path
     style="opacity:1;fill:none;fill-opacity:1;stroke:#000000;stroke-width:1.50183976;stroke-linecap:butt;stroke-miterlimit:4;stroke-dasharray:none;stroke-opacity:1"
     id="path1405-5"
     sodipodi:type="arc"
     sodipodi:cx="88.208359"
     sodipodi:cy="285.16666"
     sodipodi:rx="19.565928"
     sodipodi:ry="18.245529"
     sodipodi:start="0"
     sodipodi:end="6.2767537"
     sodipodi:open="true"
     d="m 107.77429,285.16666 a 19.565928,18.245529 0 0 1 -19.534471,18.2455 19.565928,18.245529 0 0 1 -19.597287,-18.18683 19.565928,18.245529 0 0 1 19.471447,-18.30399 19.565928,18.245529 0 0 1 19.659901,18.12797" />
  <path
     style="opacity:1;fill:none;fill-opacity:1;stroke:#000000;stroke-width:1.50183976;stroke-linecap:butt;stroke-miterlimit:4;stroke-dasharray:none;stroke-opacity:1"
     id="path1405-14"
     sodipodi:type="arc"
     sodipodi:cx="257.37503"
     sodipodi:cy="285.16666"
     sodipodi:rx="19.565928"
     sodipodi:ry="18.245529"
     sodipodi:start="0"
     sodipodi:end="6.2767537"
     sodipodi:open="true"
     d="m 276.94096,285.16666 a 19.565928,18.245529 0 0 1 -19.53447,18.2455 19.565928,18.245529 0 0 1 -19.59729,-18.18683 19.565928,18.245529 0 0 1 19.47145,-18.30399 19.565928,18.245529 0 0 1 19.6599,18.12797" />
  <path
     style="opacity:1;fill:none;fill-opacity:1;stroke:#000000;stroke-width:1.50183976;stroke-linecap:butt;stroke-miterlimit:4;stroke-dasharray:none;stroke-opacity:1"
     id="path1405-08"
     sodipodi:type="arc"
     sodipodi:cx="172.79169"
     sodipodi:cy="285.1666"
     sodipodi:rx="19.565928"
     sodipodi:ry="18.245529"
     sodipodi:start="0"
     sodipodi:end="6.2767537"
     sodipodi:open="true"
     d="m 192.35761,285.1666 a 19.565928,18.245529 0 0 1 -19.53446,18.2455 19.565928,18.245529 0 0 1 -19.59729,-18.18683 19.565928,18.245529 0 0 1 19.47145,-18.30399 19.565928,18.245529 0 0 1 19.6599,18.12797" />
  <path
     style="opacity:1;fill:none;fill-opacity:1;stroke:#000000;stroke-width:1.50183976;stroke-linecap:butt;stroke-miterlimit:4;stroke-dasharray:none;stroke-opacity:1"
     id="path1405-55"
     sodipodi:type="arc"
     sodipodi:cx="257.97919"
     sodipodi:cy="202.39583"
     sodipodi:rx="19.565928"
     sodipodi:ry="18.245529"
     sodipodi:start="0"
     sodipodi:end="6.2767537"
     sodipodi:open="true"
     d="m 277.54511,202.39583 a 19.565928,18.245529 0 0 1 -19.53446,18.2455 19.565928,18.245529 0 0 1 -19.59729,-18.18683 19.565928,18.245529 0 0 1 19.47145,-18.30399 19.565928,18.245529 0 0 1 19.6599,18.12797" />
  <text
     xml:space="preserve"
     style="font-style:normal;font-variant:normal;font-weight:normal;font-stretch:normal;font-size:26.66666603px;line-height:1.25;font-family:'special elite';-inkscape-font-specification:'special elite';letter-spacing:0px;word-spacing:0px;fill:#000000;fill-opacity:1;stroke:none"
     x="81.5625"
     y="130.5"
     id="text1466"><tspan
       sodipodi:role="line"
       id="tspan1464"
       x="81.5625"
       y="130.5">1</tspan></text>
  <text
     xml:space="preserve"
     style="font-style:normal;font-variant:normal;font-weight:normal;font-stretch:normal;font-size:26.66666603px;line-height:1.25;font-family:'special elite';-inkscape-font-specification:'special elite';letter-spacing:0px;word-spacing:0px;fill:#000000;fill-opacity:1;stroke:none"
     x="164.9375"
     y="128.6875"
     id="text1470"><tspan
       sodipodi:role="line"
       id="tspan1468"
       x="164.9375"
       y="128.6875">2</tspan></text>
  <text
     xml:space="preserve"
     style="font-style:normal;font-variant:normal;font-weight:normal;font-stretch:normal;font-size:26.66666603px;line-height:1.25;font-family:'special elite';-inkscape-font-specification:'special elite';letter-spacing:0px;word-spacing:0px;fill:#000000;fill-opacity:1;stroke:none"
     x="251.33334"
     y="129.89584"
     id="text1474"><tspan
       sodipodi:role="line"
       id="tspan1472"
       x="251.33334"
       y="129.89584">3</tspan></text>
  <text
     xml:space="preserve"
     style="font-style:normal;font-variant:normal;font-weight:normal;font-stretch:normal;font-size:26.66666603px;line-height:1.25;font-family:'special elite';-inkscape-font-specification:'special elite';letter-spacing:0px;word-spacing:0px;fill:#000000;fill-opacity:1;stroke:none"
     x="79.145836"
     y="211.45833"
     id="text1478"><tspan
       sodipodi:role="line"
       id="tspan1476"
       x="79.145836"
       y="211.45833">4</tspan></text>
  <text
     xml:space="preserve"
     style="font-style:normal;font-variant:normal;font-weight:normal;font-stretch:normal;font-size:26.66666603px;line-height:1.25;font-family:'special elite';-inkscape-font-specification:'special elite';letter-spacing:0px;word-spacing:0px;fill:#000000;fill-opacity:1;stroke:none"
     x="165.54167"
     y="211.45834"
     id="text1482"><tspan
       sodipodi:role="line"
       id="tspan1480"
       x="165.54167"
       y="211.45834">5</tspan></text>
  <text
     xml:space="preserve"
     style="font-style:normal;font-variant:normal;font-weight:normal;font-stretch:normal;font-size:26.66666603px;line-height:1.25;font-family:'special elite';-inkscape-font-specification:'special elite';letter-spacing:0px;word-spacing:0px;fill:#000000;fill-opacity:1;stroke:none"
     x="250.125"
     y="210.25"
     id="text1486"><tspan
       sodipodi:role="line"
       id="tspan1484"
       x="250.125"
       y="210.25">6</tspan></text>
  <text
     xml:space="preserve"
     style="font-style:normal;font-variant:normal;font-weight:normal;font-stretch:normal;font-size:26.66666603px;line-height:1.25;font-family:'special elite';-inkscape-font-specification:'special elite';letter-spacing:0px;word-spacing:0px;fill:#000000;fill-opacity:1;stroke:none"
     x="80.354164"
     y="295.4375"
     id="text1490"><tspan
       sodipodi:role="line"
       id="tspan1488"
       x="80.354164"
       y="295.4375">7</tspan></text>
  <text
     xml:space="preserve"
     style="font-style:normal;font-variant:normal;font-weight:normal;font-stretch:normal;font-size:26.66666603px;line-height:1.25;font-family:'special elite';-inkscape-font-specification:'special elite';letter-spacing:0px;word-spacing:0px;fill:#000000;fill-opacity:1;stroke:none"
     x="164.9375"
     y="294.83331"
     id="text1494"><tspan
       sodipodi:role="line"
       id="tspan1492"
       x="164.9375"
       y="294.83331">8</tspan></text>
  <text
     xml:space="preserve"
     style="font-style:normal;font-variant:normal;font-weight:normal;font-stretch:normal;font-size:26.66666603px;line-height:1.25;font-family:'special elite';-inkscape-font-specification:'special elite';letter-spacing:0px;word-spacing:0px;fill:#000000;fill-opacity:1;stroke:none"
     x="250.72917"
     y="294.83331"
     id="text1498"><tspan
       sodipodi:role="line"
       id="tspan1496"
       x="250.72917"
       y="294.83331">9</tspan></text>
  <path
     style="fill:none;stroke:#000000;stroke-width:3;stroke-linecap:butt;stroke-linejoin:miter;stroke-opacity:1;stroke-miterlimit:4;stroke-dasharray:none"
     d="m 87.604167,138.35417 0.604166,45.91666"
     id="path1502"
     inkscape:connector-curvature="0" />
  <path
     style="fill:none;stroke:#000000;stroke-width:3;stroke-linecap:butt;stroke-linejoin:miter;stroke-miterlimit:4;stroke-dasharray:none;stroke-opacity:1"
     d="m 87.906253,220.52084 0.60416,45.91666"
     id="path1502-0"
     inkscape:connector-curvature="0" />
  <path
     style="fill:none;stroke:#000000;stroke-width:3;stroke-linecap:butt;stroke-linejoin:miter;stroke-miterlimit:4;stroke-dasharray:none;stroke-opacity:1"
     d="m 107.77388,120.71598 45.91119,-0.93166"
     id="path1502-2"
     inkscape:connector-curvature="0" />
  <path
     style="fill:none;stroke:#000000;stroke-width:3;stroke-linecap:butt;stroke-linejoin:miter;stroke-miterlimit:4;stroke-dasharray:none;stroke-opacity:1"
     d="m 192.35721,285.04925 45.91119,-0.93166"
     id="path1502-2-2"
     inkscape:connector-curvature="0" />
  <path
     style="fill:none;stroke:#000000;stroke-width:3;stroke-linecap:butt;stroke-linejoin:miter;stroke-miterlimit:4;stroke-dasharray:none;stroke-opacity:1"
     d="m 107.77388,285.04931 45.91119,-0.93166"
     id="path1502-2-6"
     inkscape:connector-curvature="0" />
  <path
     style="fill:none;stroke:#000000;stroke-width:3;stroke-linecap:butt;stroke-linejoin:miter;stroke-miterlimit:4;stroke-dasharray:none;stroke-opacity:1"
     d="m 192.35721,202.27848 45.91119,-0.93166"
     id="path1502-2-5"
     inkscape:connector-curvature="0" />
  <path
     style="fill:none;stroke:#000000;stroke-width:3;stroke-linecap:butt;stroke-linejoin:miter;stroke-miterlimit:4;stroke-dasharray:none;stroke-opacity:1"
     d="m 107.77388,202.27848 45.91119,-0.93166"
     id="path1502-2-60"
     inkscape:connector-curvature="0" />
  <path
     style="fill:none;stroke:#000000;stroke-width:3;stroke-linecap:butt;stroke-linejoin:miter;stroke-miterlimit:4;stroke-dasharray:none;stroke-opacity:1"
     d="m 192.35721,120.71598 45.91119,-0.93166"
     id="path1502-2-8"
     inkscape:connector-curvature="0" />
  <path
     style="fill:none;stroke:#000000;stroke-width:3;stroke-linecap:butt;stroke-linejoin:miter;stroke-miterlimit:4;stroke-dasharray:none;stroke-opacity:1"
     d="m 258.28125,221.12501 0.60417,45.91666"
     id="path1502-3"
     inkscape:connector-curvature="0" />
  <path
     style="fill:none;stroke:#000000;stroke-width:3;stroke-linecap:butt;stroke-linejoin:miter;stroke-miterlimit:4;stroke-dasharray:none;stroke-opacity:1"
     d="m 172.48958,220.52084 0.60417,45.91666"
     id="path1502-9"
     inkscape:connector-curvature="0" />
  <path
     style="fill:none;stroke:#000000;stroke-width:3;stroke-linecap:butt;stroke-linejoin:miter;stroke-miterlimit:4;stroke-dasharray:none;stroke-opacity:1"
     d="m 257.07292,138.95834 0.60416,45.91666"
     id="path1502-6"
     inkscape:connector-curvature="0" />
  <path
     style="fill:none;stroke:#000000;stroke-width:3;stroke-linecap:butt;stroke-linejoin:miter;stroke-miterlimit:4;stroke-dasharray:none;stroke-opacity:1"
     d="m 171.28125,138.95834 0.60417,45.91666"
     id="path1502-08"
     inkscape:connector-curvature="0" />
</svg>
